<?xml version="1.0" encoding="UTF-8" standalone="no"?>
<!-- Created with Inkscape (http://www.inkscape.org/) -->

<svg
   xmlns:dc="http://purl.org/dc/elements/1.1/"
   xmlns:cc="http://creativecommons.org/ns#"
   xmlns:rdf="http://www.w3.org/1999/02/22-rdf-syntax-ns#"
   xmlns:svg="http://www.w3.org/2000/svg"
   xmlns="http://www.w3.org/2000/svg"
   xmlns:sodipodi="http://sodipodi.sourceforge.net/DTD/sodipodi-0.dtd"
   xmlns:inkscape="http://www.inkscape.org/namespaces/inkscape"
   width="210mm"
   height="297mm"
   viewBox="0 0 210 297"
   version="1.1"
   id="svg8"
   inkscape:version="0.92.4 (5da689c313, 2019-01-14)"
   sodipodi:docname="graph.svg">
  <defs
     id="defs2" />
  <sodipodi:namedview
     id="base"
     pagecolor="#ffffff"
     bordercolor="#666666"
     borderopacity="1.0"
     inkscape:pageopacity="0.0"
     inkscape:pageshadow="2"
     inkscape:zoom="1.4"
     inkscape:cx="52.857143"
     inkscape:cy="1005.7143"
     inkscape:document-units="mm"
     inkscape:current-layer="layer1"
     showgrid="false"
     inkscape:snap-global="false"
     inkscape:window-width="1546"
     inkscape:window-height="836"
     inkscape:window-x="54"
     inkscape:window-y="27"
     inkscape:window-maximized="1" />
  <metadata
     id="metadata5">
    <rdf:RDF>
      <cc:Work
         rdf:about="">
        <dc:format>image/svg+xml</dc:format>
        <dc:type
           rdf:resource="http://purl.org/dc/dcmitype/StillImage" />
        <dc:title></dc:title>
      </cc:Work>
    </rdf:RDF>
  </metadata>
  <g
     inkscape:label="Layer 1"
     inkscape:groupmode="layer"
     id="layer1">
    <path
       style="fill:none;stroke:#000000;stroke-width:0.26458332px;stroke-linecap:butt;stroke-linejoin:miter;stroke-opacity:1"
       d="M 12.284226,10.305059 C 9.8273808,20.699404 9.8273808,20.699404 9.8273808,20.699404"
       id="path4617"
       inkscape:connector-curvature="0" />
    <path
       style="fill:none;stroke:#000000;stroke-width:0.26458332px;stroke-linecap:butt;stroke-linejoin:miter;stroke-opacity:1"
       d="M 26.836309,9.1711305 C 30.427083,20.510416 30.427083,20.699404 30.427083,20.699404"
       id="path4619"
       inkscape:connector-curvature="0" />
    <path
       style="fill:none;stroke:#000000;stroke-width:0.26458332px;stroke-linecap:butt;stroke-linejoin:miter;stroke-opacity:1"
       d="M 20.032738,27.313988 C 30.049107,20.13244 30.616072,20.699404 30.616072,20.699404"
       id="path4621"
       inkscape:connector-curvature="0" />
    <path
       style="fill:none;stroke:#000000;stroke-width:0.26458332px;stroke-linecap:butt;stroke-linejoin:miter;stroke-opacity:1"
       d="m 10.016369,20.321428 c 9.638393,7.181549 9.638393,7.181549 9.638393,7.181549"
       id="path4623"
       inkscape:connector-curvature="0" />
    <path
       style="fill:none;stroke:#000000;stroke-width:0.26458332px;stroke-linecap:butt;stroke-linejoin:miter;stroke-opacity:1"
       d="m 30.616071,20.510416 c 0,0 0,0 -18.331845,-10.5833331 C 27.214285,9.7380948 27.214285,9.5491066 27.214285,9.5491066 9.827381,20.888393 9.827381,20.888393 9.827381,20.888393"
       id="path4625"
       inkscape:connector-curvature="0" />
    <path
       style="fill:none;stroke:#000000;stroke-width:0.26458332px;stroke-linecap:butt;stroke-linejoin:miter;stroke-opacity:1"
       d="M 12.662202,10.116071 C 19.84375,27.691963 19.84375,27.691963 19.84375,27.691963"
       id="path4627"
       inkscape:connector-curvature="0" />
    <path
       style="fill:none;stroke:#000000;stroke-width:0.26458332px;stroke-linecap:butt;stroke-linejoin:miter;stroke-opacity:1"
       d="M 27.025298,9.1711305 C 19.84375,27.313988 19.84375,27.313988 19.84375,27.313988"
       id="path4629"
       inkscape:connector-curvature="0" />
    <path
       style="fill:#e20000;fill-opacity:1;stroke:#000000;stroke-width:0.2;stroke-linejoin:miter;stroke-miterlimit:4;stroke-dasharray:none;stroke-dashoffset:0;stroke-opacity:1"
       id="path4522"
       sodipodi:type="arc"
       sodipodi:cx="12.312644"
       sodipodi:cy="10.089576"
       sodipodi:rx="1.99054"
       sodipodi:ry="1.9905237"
       sodipodi:start="3.8972803"
       sodipodi:end="3.8847189"
       sodipodi:open="true"
       d="m 10.863929,8.7244959 a 1.99054,1.9905237 0 0 1 2.80925,-0.087903 1.99054,1.9905237 0 0 1 0.09673,2.8089373 1.99054,1.9905237 0 0 1 -2.808642,0.105545 1.99054,1.9905237 0 0 1 -0.114366,-2.8082741" />
    <path
       style="fill:#ffff00;fill-opacity:1;stroke:#000000;stroke-width:0.2;stroke-linejoin:miter;stroke-miterlimit:4;stroke-dasharray:none;stroke-dashoffset:0;stroke-opacity:1"
       id="path4522-7"
       sodipodi:type="arc"
       sodipodi:cx="10.01563"
       sodipodi:cy="20.510414"
       sodipodi:rx="1.99054"
       sodipodi:ry="1.9905237"
       sodipodi:start="3.8972803"
       sodipodi:end="3.8847189"
       sodipodi:open="true"
       d="m 8.5669145,19.145334 a 1.99054,1.9905237 0 0 1 2.8092505,-0.0879 1.99054,1.9905237 0 0 1 0.09672,2.808937 1.99054,1.9905237 0 0 1 -2.8086425,0.105546 1.99054,1.9905237 0 0 1 -0.1143657,-2.808275" />
    <path
       style="fill:#00ff00;fill-opacity:1;stroke:#000000;stroke-width:0.2;stroke-linejoin:miter;stroke-miterlimit:4;stroke-dasharray:none;stroke-dashoffset:0;stroke-opacity:1"
       id="path4522-6-5"
       sodipodi:type="arc"
       sodipodi:cx="19.843878"
       sodipodi:cy="27.314852"
       sodipodi:rx="1.9904804"
       sodipodi:ry="1.9905418"
       sodipodi:start="3.8972803"
       sodipodi:end="3.8847189"
       sodipodi:open="true"
       d="m 18.395206,25.949759 a 1.9904804,1.9905418 0 0 1 2.809166,-0.0879 1.9904804,1.9905418 0 0 1 0.09672,2.808963 1.9904804,1.9905418 0 0 1 -2.808559,0.105546 1.9904804,1.9905418 0 0 1 -0.114362,-2.808299" />
    <path
       style="fill:#0000fc;fill-opacity:1;stroke:#000000;stroke-width:0.2;stroke-linejoin:miter;stroke-miterlimit:4;stroke-dasharray:none;stroke-dashoffset:0;stroke-opacity:1"
       id="path4522-6"
       sodipodi:type="arc"
       sodipodi:cx="30.237358"
       sodipodi:cy="20.321428"
       sodipodi:rx="1.99054"
       sodipodi:ry="1.9905237"
       sodipodi:start="3.8972803"
       sodipodi:end="3.8847189"
       sodipodi:open="true"
       d="m 28.788643,18.956348 a 1.99054,1.9905237 0 0 1 2.80925,-0.0879 1.99054,1.9905237 0 0 1 0.09672,2.808937 1.99054,1.9905237 0 0 1 -2.808642,0.105546 1.99054,1.9905237 0 0 1 -0.114366,-2.808275" />
    <path
       style="fill:#00ffff;fill-opacity:1;stroke:#000000;stroke-width:0.2;stroke-linejoin:miter;stroke-miterlimit:4;stroke-dasharray:none;stroke-dashoffset:0;stroke-opacity:1"
       id="path4522-3"
       sodipodi:type="arc"
       sodipodi:cx="27.213547"
       sodipodi:cy="9.5491066"
       sodipodi:rx="1.99054"
       sodipodi:ry="1.9905237"
       sodipodi:start="3.8972803"
       sodipodi:end="3.8847189"
       sodipodi:open="true"
       d="m 25.764831,8.1840267 a 1.99054,1.9905237 0 0 1 2.809251,-0.087903 1.99054,1.9905237 0 0 1 0.09672,2.8089375 1.99054,1.9905237 0 0 1 -2.808643,0.105545 1.99054,1.9905237 0 0 1 -0.114365,-2.8082743" />
  </g>
</svg>
